<svg xmlns="http://www.w3.org/2000/svg" xmlns:xlink="http://www.w3.org/1999/xlink" width="981" zoomAndPan="magnify" viewBox="0 0 735.75 251.250001" height="335" preserveAspectRatio="xMidYMid meet" version="1.0"><defs><g/><clipPath id="4eada55d6f"><path d="M 704 97.117188 L 734.105469 97.117188 L 734.105469 133 L 704 133 Z M 704 97.117188 " clip-rule="nonzero"/></clipPath><clipPath id="2a794f9d82"><path d="M 713 135 L 722 135 L 722 143.480469 L 713 143.480469 Z M 713 135 " clip-rule="nonzero"/></clipPath><clipPath id="652c5710a1"><path d="M 692.230469 135 L 701 135 L 701 143.480469 L 692.230469 143.480469 Z M 692.230469 135 " clip-rule="nonzero"/></clipPath><clipPath id="2a0733899c"><path d="M 692.230469 97.117188 L 701 97.117188 L 701 133 L 692.230469 133 Z M 692.230469 97.117188 " clip-rule="nonzero"/></clipPath><clipPath id="73208650b1"><rect x="0" width="178" y="0" height="104"/></clipPath><clipPath id="8cd54a0d9c"><rect x="0" width="147" y="0" height="117"/></clipPath></defs><g clip-path="url(#4eada55d6f)"><path fill="#f8b449" d="M 717.507812 132.230469 C 715.183594 132.230469 713.296875 130.34375 713.296875 128.015625 L 713.296875 122.398438 C 713.296875 120.074219 715.183594 118.1875 717.507812 118.1875 C 718.355469 118.179688 725.9375 116.78125 725.9375 111.164062 C 725.9375 108.355469 723.128906 105.546875 718.914062 105.546875 C 715.484375 105.546875 713.296875 108.355469 713.296875 109.761719 C 713.296875 112.085938 711.410156 113.972656 709.082031 113.972656 C 706.757812 113.972656 704.871094 112.085938 704.871094 109.761719 C 704.871094 102.910156 711.300781 97.121094 718.914062 97.121094 C 730.148438 97.121094 734.363281 105.523438 734.363281 112.570312 C 734.363281 118.390625 731.164062 122.839844 725.355469 125.097656 C 724.09375 125.589844 722.84375 125.921875 721.722656 126.144531 L 721.722656 128.015625 C 721.722656 130.34375 719.835938 132.230469 717.507812 132.230469 Z M 717.507812 132.230469 " fill-opacity="1" fill-rule="nonzero"/></g><g clip-path="url(#2a794f9d82)"><path fill="#f8b449" d="M 721.722656 139.253906 C 721.722656 139.53125 721.695312 139.804688 721.640625 140.074219 C 721.585938 140.347656 721.507812 140.609375 721.402344 140.863281 C 721.296875 141.121094 721.167969 141.363281 721.011719 141.59375 C 720.859375 141.824219 720.683594 142.035156 720.488281 142.230469 C 720.292969 142.425781 720.082031 142.601562 719.851562 142.757812 C 719.621094 142.910156 719.378906 143.039062 719.121094 143.144531 C 718.867188 143.25 718.601562 143.332031 718.332031 143.386719 C 718.058594 143.4375 717.785156 143.464844 717.507812 143.464844 C 717.234375 143.464844 716.957031 143.4375 716.6875 143.386719 C 716.417969 143.332031 716.152344 143.25 715.898438 143.144531 C 715.640625 143.039062 715.398438 142.910156 715.167969 142.757812 C 714.9375 142.601562 714.726562 142.425781 714.53125 142.230469 C 714.335938 142.035156 714.160156 141.824219 714.007812 141.59375 C 713.851562 141.363281 713.722656 141.121094 713.617188 140.863281 C 713.511719 140.609375 713.429688 140.347656 713.378906 140.074219 C 713.324219 139.804688 713.296875 139.53125 713.296875 139.253906 C 713.296875 138.976562 713.324219 138.703125 713.378906 138.429688 C 713.429688 138.160156 713.511719 137.894531 713.617188 137.640625 C 713.722656 137.386719 713.851562 137.140625 714.007812 136.910156 C 714.160156 136.683594 714.335938 136.46875 714.53125 136.273438 C 714.726562 136.078125 714.9375 135.902344 715.167969 135.75 C 715.398438 135.597656 715.640625 135.464844 715.898438 135.359375 C 716.152344 135.253906 716.417969 135.175781 716.6875 135.121094 C 716.957031 135.066406 717.234375 135.039062 717.507812 135.039062 C 717.785156 135.039062 718.058594 135.066406 718.332031 135.121094 C 718.601562 135.175781 718.867188 135.253906 719.121094 135.359375 C 719.378906 135.464844 719.621094 135.597656 719.851562 135.75 C 720.082031 135.902344 720.292969 136.078125 720.488281 136.273438 C 720.683594 136.46875 720.859375 136.683594 721.011719 136.910156 C 721.167969 137.140625 721.296875 137.386719 721.402344 137.640625 C 721.507812 137.894531 721.585938 138.160156 721.640625 138.429688 C 721.695312 138.703125 721.722656 138.976562 721.722656 139.253906 Z M 721.722656 139.253906 " fill-opacity="1" fill-rule="nonzero"/></g><g clip-path="url(#652c5710a1)"><path fill="#f8b449" d="M 700.65625 139.253906 C 700.65625 139.53125 700.628906 139.804688 700.574219 140.074219 C 700.523438 140.347656 700.441406 140.609375 700.335938 140.863281 C 700.230469 141.121094 700.101562 141.363281 699.945312 141.59375 C 699.792969 141.824219 699.617188 142.035156 699.421875 142.230469 C 699.226562 142.425781 699.015625 142.601562 698.785156 142.757812 C 698.554688 142.910156 698.3125 143.039062 698.054688 143.144531 C 697.800781 143.25 697.535156 143.332031 697.265625 143.386719 C 696.992188 143.4375 696.71875 143.464844 696.445312 143.464844 C 696.167969 143.464844 695.894531 143.4375 695.621094 143.386719 C 695.351562 143.332031 695.085938 143.25 694.832031 143.144531 C 694.574219 143.039062 694.332031 142.910156 694.101562 142.757812 C 693.871094 142.601562 693.660156 142.425781 693.464844 142.230469 C 693.269531 142.035156 693.09375 141.824219 692.941406 141.59375 C 692.785156 141.363281 692.65625 141.121094 692.550781 140.863281 C 692.445312 140.609375 692.363281 140.347656 692.3125 140.074219 C 692.257812 139.804688 692.230469 139.53125 692.230469 139.253906 C 692.230469 138.976562 692.257812 138.703125 692.3125 138.429688 C 692.363281 138.160156 692.445312 137.894531 692.550781 137.640625 C 692.65625 137.386719 692.785156 137.140625 692.941406 136.910156 C 693.09375 136.683594 693.269531 136.46875 693.464844 136.273438 C 693.660156 136.078125 693.871094 135.902344 694.101562 135.75 C 694.332031 135.597656 694.574219 135.464844 694.832031 135.359375 C 695.085938 135.253906 695.351562 135.175781 695.621094 135.121094 C 695.894531 135.066406 696.167969 135.039062 696.445312 135.039062 C 696.71875 135.039062 696.992188 135.066406 697.265625 135.121094 C 697.535156 135.175781 697.800781 135.253906 698.054688 135.359375 C 698.3125 135.464844 698.554688 135.597656 698.785156 135.75 C 699.015625 135.902344 699.226562 136.078125 699.421875 136.273438 C 699.617188 136.46875 699.792969 136.683594 699.945312 136.910156 C 700.101562 137.140625 700.230469 137.386719 700.335938 137.640625 C 700.441406 137.894531 700.523438 138.160156 700.574219 138.429688 C 700.628906 138.703125 700.65625 138.976562 700.65625 139.253906 Z M 700.65625 139.253906 " fill-opacity="1" fill-rule="nonzero"/></g><g clip-path="url(#2a0733899c)"><path fill="#f8b449" d="M 700.65625 128.015625 C 700.65625 130.34375 698.769531 132.230469 696.445312 132.230469 C 694.117188 132.230469 692.230469 130.34375 692.230469 128.015625 L 692.230469 101.332031 C 692.230469 99.007812 694.117188 97.121094 696.445312 97.121094 C 698.769531 97.121094 700.65625 99.007812 700.65625 101.332031 Z M 700.65625 128.015625 " fill-opacity="1" fill-rule="nonzero"/></g><g transform="matrix(1, 0, 0, 1, 12, 10)"><g clip-path="url(#73208650b1)"><g fill="#000000" fill-opacity="1"><g transform="translate(36.800264, 91.350215)"><g><path d="M -21.890625 -22.796875 C -22.191406 -22.972656 -21.234375 -24.191406 -19.015625 -26.453125 C -16.554688 -28.960938 -15.085938 -30.046875 -14.609375 -29.703125 L 0.734375 -17.8125 L -9.8125 -34.921875 C -10.03125 -35.359375 -9.359375 -36.375 -7.796875 -37.96875 C -6.234375 -39.5625 -5.25 -40.257812 -4.84375 -40.0625 L 12.515625 -29.703125 L 0.484375 -45.234375 C 0.285156 -45.503906 0.613281 -46.160156 1.46875 -47.203125 C 2.320312 -48.253906 3.035156 -49.078125 3.609375 -49.671875 C 5.859375 -51.960938 7.101562 -52.921875 7.34375 -52.546875 L 25.140625 -27.34375 C 25.378906 -26.9375 25.007812 -26.082031 24.03125 -24.78125 C 23.050781 -23.476562 22.207031 -22.46875 21.5 -21.75 C 18.851562 -19.039062 17.160156 -17.914062 16.421875 -18.375 L 5.25 -24.96875 L 11.84375 -13.765625 C 12.15625 -13.304688 11.6875 -12.269531 10.4375 -10.65625 C 9.78125 -9.851562 9.085938 -9.082031 8.359375 -8.34375 L 6.21875 -6.34375 C 4.644531 -5.0625 3.625 -4.5625 3.15625 -4.84375 Z M -21.890625 -22.796875 "/></g></g></g><g fill="#000000" fill-opacity="1"><g transform="translate(65.044028, 63.60031)"><g><path d="M 25.640625 -9.09375 C 25.796875 -8.59375 24.410156 -7.867188 21.484375 -6.921875 C 18.554688 -5.984375 17.015625 -5.765625 16.859375 -6.265625 L 13.625 -16.28125 L 7.5 -14.3125 L 10.734375 -4.296875 C 10.890625 -3.796875 9.5 -3.070312 6.5625 -2.125 C 3.632812 -1.175781 2.09375 -0.953125 1.9375 -1.453125 L -7.390625 -30.328125 C -7.585938 -30.941406 -6.21875 -31.722656 -3.28125 -32.671875 C -0.351562 -33.617188 1.207031 -33.785156 1.40625 -33.171875 L 4.71875 -22.9375 L 10.84375 -24.90625 L 7.5625 -35.0625 C 7.425781 -35.46875 8.050781 -35.988281 9.4375 -36.625 C 10.175781 -36.925781 10.90625 -37.191406 11.625 -37.421875 L 13.890625 -38.046875 C 15.390625 -38.347656 16.207031 -38.296875 16.34375 -37.890625 Z M 25.640625 -9.09375 "/></g></g></g><g fill="#000000" fill-opacity="1"><g transform="translate(90.335986, 54.807694)"><g><path d="M 23.703125 2.1875 C 21.054688 1.957031 19.664062 1.40625 19.53125 0.53125 L 18.546875 -5.484375 L 11.296875 -6.125 L 9.484375 -0.59375 C 9.210938 0.332031 7.707031 0.675781 4.96875 0.4375 C 3.507812 0.3125 2.4375 0.132812 1.75 -0.09375 C 1.070312 -0.320312 0.738281 -0.484375 0.75 -0.578125 L 11.546875 -30.734375 C 11.566406 -30.972656 13.65625 -30.910156 17.8125 -30.546875 C 21.976562 -30.179688 24.050781 -29.878906 24.03125 -29.640625 L 29.1875 1.984375 C 29.175781 2.191406 28.460938 2.296875 27.046875 2.296875 C 25.640625 2.296875 24.523438 2.257812 23.703125 2.1875 Z M 12.953125 -11.8125 L 17.75 -11.390625 L 16.515625 -21.015625 L 16.234375 -21.03125 Z M 12.953125 -11.8125 "/></g></g></g><g fill="#000000" fill-opacity="1"><g transform="translate(117.846986, 57.44845)"><g><path d="M 14.78125 6.3125 C 14.519531 6.863281 13.03125 6.484375 10.3125 5.171875 C 7.59375 3.859375 6.363281 2.925781 6.625 2.375 L 16.59375 -18.34375 L 11.640625 -20.71875 C 11.171875 -20.945312 11.144531 -21.738281 11.5625 -23.09375 C 11.78125 -23.726562 12.039062 -24.363281 12.34375 -25 C 12.644531 -25.632812 12.976562 -26.234375 13.34375 -26.796875 C 14.144531 -27.972656 14.78125 -28.445312 15.25 -28.21875 L 33.1875 -19.578125 C 33.65625 -19.359375 33.6875 -18.566406 33.28125 -17.203125 C 33.070312 -16.566406 32.816406 -15.929688 32.515625 -15.296875 C 32.210938 -14.660156 31.875 -14.0625 31.5 -13.5 C 30.6875 -12.332031 30.046875 -11.859375 29.578125 -12.078125 L 24.75 -14.40625 Z M 14.78125 6.3125 "/></g></g></g><g fill="#000000" fill-opacity="1"><g transform="translate(137.724175, 67.865385)"><g/></g></g></g></g><g fill="#000000" fill-opacity="1"><g transform="translate(166.815146, 82.182406)"><g><path d="M 24.328125 23.1875 C 22.398438 21.351562 21.640625 20.222656 22.046875 19.796875 L 33.765625 6.109375 L 17.265625 15.546875 C 16.929688 15.710938 16.066406 15.140625 14.671875 13.828125 C 13.285156 12.515625 12.679688 11.710938 12.859375 11.421875 L 21.46875 -5.796875 L 8.703125 6.71875 C 8.367188 7.019531 7.742188 6.847656 6.828125 6.203125 C 5.921875 5.566406 5.195312 4.992188 4.65625 4.484375 C 4.125 3.984375 3.644531 3.460938 3.21875 2.921875 C 2.320312 1.785156 2.066406 1.035156 2.453125 0.671875 L 23.28125 -19.75 C 23.769531 -20.257812 25.332031 -19.257812 27.96875 -16.75 C 28.757812 -16 29.660156 -15.03125 30.671875 -13.84375 C 31.679688 -12.664062 32.082031 -11.835938 31.875 -11.359375 L 25.796875 2.3125 L 38.734375 -4.921875 C 39.460938 -5.296875 41.222656 -4.15625 44.015625 -1.5 C 44.816406 -0.738281 45.71875 0.226562 46.71875 1.40625 C 47.726562 2.582031 48.09375 3.320312 47.8125 3.625 L 28.484375 25.84375 C 28.265625 26.070312 27.679688 25.835938 26.734375 25.140625 C 25.785156 24.453125 24.984375 23.800781 24.328125 23.1875 Z M 24.328125 23.1875 "/></g></g></g><g fill="#000000" fill-opacity="1"><g transform="translate(200.694208, 113.181156)"><g><path d="M 19.15625 13.265625 C 17.019531 11.796875 16.097656 10.65625 16.390625 9.84375 L 18.453125 4.234375 L 12.578125 0.203125 L 8.359375 4.0625 C 7.691406 4.71875 6.25 4.285156 4.03125 2.765625 C 2.84375 1.953125 2.007812 1.28125 1.53125 0.75 C 1.0625 0.226562 0.851562 -0.0664062 0.90625 -0.140625 L 24.625 -20.65625 C 24.757812 -20.851562 26.507812 -19.796875 29.875 -17.484375 C 33.25 -15.171875 34.867188 -13.914062 34.734375 -13.71875 L 23.9375 15.71875 C 23.820312 15.894531 23.164062 15.644531 21.96875 14.96875 C 20.769531 14.289062 19.832031 13.722656 19.15625 13.265625 Z M 16.734375 -3.859375 L 20.609375 -1.1875 L 24.171875 -9.96875 L 23.953125 -10.125 Z M 16.734375 -3.859375 "/></g></g></g><g fill="#000000" fill-opacity="1"><g transform="translate(229.141111, 132.255075)"><g><path d="M 10.265625 4.515625 C 10.066406 4.921875 8.71875 4.484375 6.21875 3.203125 L 4.046875 1.953125 C 2.753906 1.171875 2.175781 0.644531 2.3125 0.375 L 15.921875 -26.421875 C 16.148438 -26.878906 17.597656 -26.429688 20.265625 -25.078125 C 22.929688 -23.722656 24.148438 -22.816406 23.921875 -22.359375 L 18.734375 -12.140625 L 28.796875 -19.890625 C 29.171875 -20.171875 30.328125 -19.816406 32.265625 -18.828125 C 35.816406 -17.023438 37.535156 -15.773438 37.421875 -15.078125 C 37.390625 -15.023438 37.347656 -14.972656 37.296875 -14.921875 L 23.953125 -5.90625 L 26.359375 9.328125 C 26.335938 9.378906 25.972656 9.476562 25.265625 9.625 C 23.503906 10.0625 21.640625 10.164062 19.671875 9.9375 C 19.078125 9.875 18.523438 9.710938 18.015625 9.453125 L 17.09375 8.875 C 16.34375 8.238281 15.957031 7.359375 15.9375 6.234375 L 15.796875 -4.78125 L 15.15625 -5.109375 Z M 10.265625 4.515625 "/></g></g></g><g fill="#000000" fill-opacity="1"><g transform="translate(258.268112, 146.562775)"><g><path d="M 22.296875 -11.921875 C 22.835938 -11.722656 22.75 -10.644531 22.03125 -8.6875 C 21.8125 -8.09375 21.488281 -7.421875 21.0625 -6.671875 C 20.644531 -5.921875 20.269531 -5.601562 19.9375 -5.71875 L 14.59375 -7.6875 L 13.046875 -3.484375 L 20.78125 -0.640625 C 21.257812 -0.460938 21.351562 0.269531 21.0625 1.5625 C 20.945312 2.132812 20.78125 2.71875 20.5625 3.3125 C 20.34375 3.914062 19.96875 4.660156 19.4375 5.546875 C 18.914062 6.441406 18.460938 6.816406 18.078125 6.671875 L 3.6875 1.359375 C 2.625 0.972656 2.253906 0.347656 2.578125 -0.515625 L 12.5625 -27.546875 C 12.820312 -28.285156 13.273438 -28.539062 13.921875 -28.3125 L 28.96875 -22.75 C 29.5625 -22.53125 29.398438 -21.175781 28.484375 -18.6875 C 27.578125 -16.207031 26.828125 -15.078125 26.234375 -15.296875 L 18.46875 -18.15625 L 16.890625 -13.90625 Z M 22.296875 -11.921875 "/></g></g></g><g fill="#000000" fill-opacity="1"><g transform="translate(283.335414, 155.605091)"><g><path d="M 5.953125 -9.78125 C 6.398438 -9.207031 7.203125 -8.375 8.359375 -7.28125 C 9.523438 -6.195312 10.722656 -5.5 11.953125 -5.1875 C 13.179688 -4.882812 13.910156 -5.207031 14.140625 -6.15625 C 14.253906 -6.59375 14.179688 -7.019531 13.921875 -7.4375 C 13.660156 -7.851562 13.117188 -8.394531 12.296875 -9.0625 C 11.484375 -9.726562 10.875 -10.242188 10.46875 -10.609375 C 10.070312 -10.972656 9.554688 -11.53125 8.921875 -12.28125 C 8.296875 -13.039062 7.863281 -13.773438 7.625 -14.484375 C 6.863281 -16.441406 6.800781 -18.691406 7.4375 -21.234375 C 8.082031 -23.773438 9.570312 -25.679688 11.90625 -26.953125 C 14.25 -28.234375 16.957031 -28.492188 20.03125 -27.734375 C 22.101562 -27.203125 23.96875 -26.492188 25.625 -25.609375 C 27.289062 -24.722656 28.0625 -23.910156 27.9375 -23.171875 C 27.914062 -23.078125 27.894531 -22.988281 27.875 -22.90625 C 27.625 -21.882812 26.984375 -20.679688 25.953125 -19.296875 C 24.929688 -17.910156 24.265625 -17.160156 23.953125 -17.046875 C 22.335938 -18.472656 20.800781 -19.367188 19.34375 -19.734375 C 17.882812 -20.097656 17.023438 -19.757812 16.765625 -18.71875 C 16.597656 -18.070312 16.988281 -17.375 17.9375 -16.625 C 18.144531 -16.445312 18.4375 -16.203125 18.8125 -15.890625 C 19.195312 -15.578125 19.632812 -15.210938 20.125 -14.796875 C 20.625 -14.390625 21.148438 -13.890625 21.703125 -13.296875 C 22.253906 -12.703125 22.816406 -11.96875 23.390625 -11.09375 C 24.554688 -9.257812 24.84375 -7.15625 24.25 -4.78125 C 23.46875 -1.675781 21.972656 0.644531 19.765625 2.1875 C 17.566406 3.726562 14.679688 4.082031 11.109375 3.25 C 9.367188 2.8125 7.832031 2.269531 6.5 1.625 C 5.164062 0.988281 4.082031 0.117188 3.25 -0.984375 C 2.414062 -2.085938 2.148438 -3.234375 2.453125 -4.421875 C 2.753906 -5.609375 3.265625 -6.734375 3.984375 -7.796875 C 4.710938 -8.867188 5.367188 -9.53125 5.953125 -9.78125 Z M 5.953125 -9.78125 "/></g></g></g><g transform="matrix(1, 0, 0, 1, 301, 112)"><g clip-path="url(#8cd54a0d9c)"><g fill="#7b112a" fill-opacity="1"><g transform="translate(12.005572, 60.556452)"><g><path d="M 15.234375 10.265625 L 14.671875 9.921875 C 14.097656 9.617188 13.582031 9.265625 13.125 8.859375 C 12.664062 8.453125 12.21875 8.019531 11.78125 7.5625 C 11.519531 7.238281 11.257812 6.9375 11 6.65625 C 10.738281 6.382812 10.492188 6.101562 10.265625 5.8125 C 10.160156 5.644531 10.054688 5.476562 9.953125 5.3125 C 9.859375 5.15625 9.738281 4.984375 9.59375 4.796875 C 8.757812 3.242188 8.253906 1.65625 8.078125 0.03125 C 8.015625 -0.707031 7.988281 -1.453125 8 -2.203125 C 8.007812 -2.960938 8.03125 -3.710938 8.0625 -4.453125 C 8.09375 -4.679688 8.09375 -4.898438 8.0625 -5.109375 C 8.039062 -5.328125 8.046875 -5.53125 8.078125 -5.71875 C 8.097656 -6.113281 8.128906 -6.492188 8.171875 -6.859375 C 8.222656 -7.234375 8.300781 -7.585938 8.40625 -7.921875 C 8.507812 -8.171875 8.585938 -8.441406 8.640625 -8.734375 C 8.691406 -9.035156 8.75 -9.316406 8.8125 -9.578125 C 8.914062 -9.921875 9.03125 -10.28125 9.15625 -10.65625 C 9.289062 -11.039062 9.410156 -11.398438 9.515625 -11.734375 C 9.679688 -12.203125 9.859375 -12.675781 10.046875 -13.15625 C 10.242188 -13.632812 10.4375 -14.101562 10.625 -14.5625 C 10.914062 -15.238281 11.226562 -15.875 11.5625 -16.46875 C 11.90625 -17.070312 12.273438 -17.660156 12.671875 -18.234375 C 12.972656 -18.660156 13.289062 -19.0625 13.625 -19.4375 C 13.957031 -19.8125 14.273438 -20.210938 14.578125 -20.640625 C 14.703125 -20.765625 14.816406 -20.867188 14.921875 -20.953125 C 15.023438 -21.046875 15.132812 -21.132812 15.25 -21.21875 C 15.40625 -21.425781 15.5625 -21.617188 15.71875 -21.796875 C 15.882812 -21.984375 16.054688 -22.171875 16.234375 -22.359375 C 16.578125 -22.867188 16.972656 -23.351562 17.421875 -23.8125 C 17.878906 -24.269531 18.335938 -24.707031 18.796875 -25.125 C 19.222656 -25.476562 19.644531 -25.835938 20.0625 -26.203125 C 20.488281 -26.578125 20.941406 -26.953125 21.421875 -27.328125 C 22.066406 -27.796875 22.722656 -28.253906 23.390625 -28.703125 C 24.066406 -29.160156 24.789062 -29.566406 25.5625 -29.921875 C 26.425781 -30.296875 27.328125 -30.585938 28.265625 -30.796875 C 29.210938 -31.003906 30.160156 -31.179688 31.109375 -31.328125 C 32.140625 -31.460938 33.164062 -31.472656 34.1875 -31.359375 C 35.207031 -31.242188 36.210938 -31.09375 37.203125 -30.90625 C 37.460938 -30.84375 37.726562 -30.78125 38 -30.71875 C 38.269531 -30.664062 38.546875 -30.578125 38.828125 -30.453125 C 39.160156 -30.347656 39.460938 -30.210938 39.734375 -30.046875 C 40.015625 -29.878906 40.300781 -29.707031 40.59375 -29.53125 C 41.457031 -29.007812 42.179688 -28.394531 42.765625 -27.6875 C 43.347656 -26.988281 43.859375 -26.222656 44.296875 -25.390625 C 44.585938 -24.921875 44.832031 -24.421875 45.03125 -23.890625 C 45.238281 -23.367188 45.421875 -22.859375 45.578125 -22.359375 C 45.734375 -22.015625 45.875 -21.679688 46 -21.359375 C 46.125 -21.035156 46.226562 -20.722656 46.3125 -20.421875 C 46.519531 -19.535156 46.519531 -18.65625 46.3125 -17.78125 C 46.21875 -17.476562 46.046875 -17.234375 45.796875 -17.046875 C 45.546875 -16.867188 45.257812 -16.726562 44.9375 -16.625 C 44.59375 -16.476562 44.234375 -16.351562 43.859375 -16.25 C 43.492188 -16.144531 43.109375 -16.085938 42.703125 -16.078125 C 42.359375 -16.085938 41.992188 -16.066406 41.609375 -16.015625 C 41.222656 -15.972656 40.828125 -15.945312 40.421875 -15.9375 C 40.328125 -15.945312 40.210938 -15.941406 40.078125 -15.921875 C 39.941406 -15.910156 39.8125 -15.882812 39.6875 -15.84375 C 39.195312 -15.78125 38.859375 -15.804688 38.671875 -15.921875 C 38.492188 -16.035156 38.328125 -16.296875 38.171875 -16.703125 C 38.117188 -16.878906 38.078125 -17.066406 38.046875 -17.265625 C 38.015625 -17.460938 37.988281 -17.660156 37.96875 -17.859375 C 37.882812 -18.316406 37.800781 -18.769531 37.71875 -19.21875 C 37.644531 -19.675781 37.472656 -20.109375 37.203125 -20.515625 C 36.890625 -21.078125 36.476562 -21.519531 35.96875 -21.84375 C 35.46875 -22.175781 34.910156 -22.425781 34.296875 -22.59375 C 34.128906 -22.632812 33.972656 -22.675781 33.828125 -22.71875 C 33.679688 -22.757812 33.503906 -22.789062 33.296875 -22.8125 C 31.972656 -23.113281 30.6875 -23.03125 29.4375 -22.5625 C 28.726562 -22.394531 28 -21.976562 27.25 -21.3125 C 26.894531 -21.082031 26.550781 -20.835938 26.21875 -20.578125 C 25.882812 -20.316406 25.566406 -20.054688 25.265625 -19.796875 C 25.035156 -19.578125 24.800781 -19.335938 24.5625 -19.078125 C 24.332031 -18.816406 24.09375 -18.5625 23.84375 -18.3125 C 23 -17.40625 22.25 -16.453125 21.59375 -15.453125 C 20.945312 -14.460938 20.300781 -13.429688 19.65625 -12.359375 C 19.164062 -11.546875 18.710938 -10.679688 18.296875 -9.765625 C 18.179688 -9.484375 18.085938 -9.175781 18.015625 -8.84375 C 17.941406 -8.507812 17.878906 -8.175781 17.828125 -7.84375 C 17.703125 -7.3125 17.59375 -6.785156 17.5 -6.265625 C 17.414062 -5.742188 17.328125 -5.234375 17.234375 -4.734375 C 17.210938 -4.453125 17.210938 -4.160156 17.234375 -3.859375 C 17.265625 -3.566406 17.265625 -3.273438 17.234375 -2.984375 C 17.140625 -2.242188 17.300781 -1.492188 17.71875 -0.734375 C 17.882812 -0.429688 18.019531 -0.109375 18.125 0.234375 C 18.238281 0.578125 18.375 0.921875 18.53125 1.265625 C 18.707031 1.734375 19.019531 2.175781 19.46875 2.59375 C 19.757812 2.875 20.035156 3.15625 20.296875 3.4375 C 20.554688 3.71875 20.863281 3.941406 21.21875 4.109375 C 21.394531 4.160156 21.535156 4.21875 21.640625 4.28125 C 21.742188 4.34375 21.882812 4.40625 22.0625 4.46875 C 22.289062 4.507812 22.507812 4.539062 22.71875 4.5625 C 22.9375 4.582031 23.128906 4.625 23.296875 4.6875 C 23.597656 4.757812 23.882812 4.789062 24.15625 4.78125 C 24.4375 4.769531 24.738281 4.765625 25.0625 4.765625 C 25.457031 4.753906 25.875 4.71875 26.3125 4.65625 C 26.757812 4.59375 27.21875 4.601562 27.6875 4.6875 C 28.269531 4.78125 28.644531 5.0625 28.8125 5.53125 C 29.195312 6.25 29.535156 7.023438 29.828125 7.859375 C 30.015625 8.222656 30.164062 8.578125 30.28125 8.921875 C 30.40625 9.273438 30.539062 9.617188 30.6875 9.953125 C 30.957031 10.785156 30.695312 11.394531 29.90625 11.78125 C 29.375 12.0625 28.816406 12.289062 28.234375 12.46875 C 27.648438 12.644531 27.066406 12.804688 26.484375 12.953125 C 25.835938 13.078125 25.191406 13.128906 24.546875 13.109375 C 23.898438 13.097656 23.25 13.050781 22.59375 12.96875 C 21.601562 12.863281 20.707031 12.675781 19.90625 12.40625 C 19.0625 12.195312 18.25 11.90625 17.46875 11.53125 C 16.695312 11.164062 15.953125 10.742188 15.234375 10.265625 Z M 15.234375 10.265625 "/></g></g></g><g fill="#7b112a" fill-opacity="1"><g transform="translate(48.776748, 81.731115)"><g><path d="M 16.328125 -17.0625 C 16.460938 -17.257812 16.59375 -17.453125 16.71875 -17.640625 C 16.851562 -17.835938 16.988281 -18.03125 17.125 -18.21875 C 17.539062 -18.875 17.960938 -19.53125 18.390625 -20.1875 C 18.828125 -20.84375 19.296875 -21.46875 19.796875 -22.0625 C 20.523438 -22.957031 21.25 -23.867188 21.96875 -24.796875 C 22.695312 -25.722656 23.429688 -26.628906 24.171875 -27.515625 C 24.410156 -27.804688 24.644531 -28.070312 24.875 -28.3125 C 25.101562 -28.550781 25.332031 -28.773438 25.5625 -28.984375 C 25.84375 -29.234375 26.179688 -29.3125 26.578125 -29.21875 C 26.972656 -29.132812 27.226562 -28.941406 27.34375 -28.640625 C 27.53125 -28.285156 27.671875 -27.929688 27.765625 -27.578125 C 27.859375 -27.234375 27.957031 -26.867188 28.0625 -26.484375 C 28.21875 -25.835938 28.363281 -25.1875 28.5 -24.53125 C 28.632812 -23.882812 28.785156 -23.226562 28.953125 -22.5625 C 29.054688 -22.09375 29.175781 -21.613281 29.3125 -21.125 C 29.445312 -20.632812 29.546875 -20.132812 29.609375 -19.625 C 29.722656 -19.019531 29.832031 -18.394531 29.9375 -17.75 C 30.039062 -17.101562 30.148438 -16.457031 30.265625 -15.8125 C 30.285156 -15.539062 30.320312 -15.273438 30.375 -15.015625 C 30.4375 -14.765625 30.476562 -14.507812 30.5 -14.25 C 30.46875 -14.113281 30.546875 -13.957031 30.734375 -13.78125 L 30.859375 -14.34375 L 32.515625 -21.5625 C 33.148438 -24.15625 33.769531 -26.734375 34.375 -29.296875 C 34.976562 -31.859375 35.578125 -34.425781 36.171875 -37 C 36.253906 -37.207031 36.320312 -37.421875 36.375 -37.640625 C 36.425781 -37.867188 36.476562 -38.09375 36.53125 -38.3125 C 36.582031 -38.707031 36.75 -38.957031 37.03125 -39.0625 C 37.320312 -39.175781 37.625 -39.21875 37.9375 -39.1875 C 38.113281 -39.195312 38.390625 -39.15625 38.765625 -39.0625 C 39.085938 -38.945312 39.414062 -38.835938 39.75 -38.734375 C 40.09375 -38.640625 40.425781 -38.535156 40.75 -38.421875 L 42.203125 -38.09375 C 42.660156 -37.976562 43.140625 -37.863281 43.640625 -37.75 C 44.148438 -37.632812 44.644531 -37.546875 45.125 -37.484375 C 45.539062 -37.390625 45.765625 -37.132812 45.796875 -36.71875 C 45.847656 -36.539062 45.875 -36.363281 45.875 -36.1875 C 45.882812 -36.007812 45.863281 -35.816406 45.8125 -35.609375 C 45.4375 -34.140625 45.070312 -32.644531 44.71875 -31.125 C 44.375 -29.601562 43.992188 -28.117188 43.578125 -26.671875 C 42.640625 -23.160156 41.765625 -19.613281 40.953125 -16.03125 C 40.734375 -14.882812 40.503906 -13.738281 40.265625 -12.59375 C 40.023438 -11.457031 39.773438 -10.316406 39.515625 -9.171875 C 39.296875 -8.210938 39.078125 -7.257812 38.859375 -6.3125 C 38.640625 -5.363281 38.378906 -4.414062 38.078125 -3.46875 C 37.566406 -1.8125 37.132812 -0.128906 36.78125 1.578125 C 36.4375 3.296875 36.046875 5.015625 35.609375 6.734375 C 35.597656 6.816406 35.59375 6.894531 35.59375 6.96875 C 35.601562 7.039062 35.578125 7.109375 35.515625 7.171875 C 35.390625 7.722656 35.066406 7.960938 34.546875 7.890625 C 32.296875 7.679688 30.003906 7.351562 27.671875 6.90625 C 27.421875 6.851562 27.234375 6.789062 27.109375 6.71875 C 26.566406 6.59375 26.265625 6.28125 26.203125 5.78125 L 25.40625 1.40625 C 25.269531 0.445312 25.132812 -0.519531 25 -1.5 C 24.863281 -2.476562 24.660156 -3.441406 24.390625 -4.390625 C 24.117188 -5.472656 23.847656 -6.539062 23.578125 -7.59375 C 23.304688 -8.65625 23.046875 -9.703125 22.796875 -10.734375 C 22.773438 -10.878906 22.742188 -11.007812 22.703125 -11.125 C 22.671875 -11.238281 22.632812 -11.394531 22.59375 -11.59375 C 22.363281 -11.375 22.210938 -11.234375 22.140625 -11.171875 C 21.535156 -10.421875 20.921875 -9.660156 20.296875 -8.890625 C 19.679688 -8.117188 19.066406 -7.363281 18.453125 -6.625 C 17.921875 -6.039062 17.40625 -5.425781 16.90625 -4.78125 C 16.40625 -4.144531 15.929688 -3.5 15.484375 -2.84375 C 15.066406 -2.238281 14.640625 -1.617188 14.203125 -0.984375 C 13.773438 -0.347656 13.332031 0.296875 12.875 0.953125 C 12.726562 1.222656 12.546875 1.476562 12.328125 1.71875 C 12.117188 1.96875 11.921875 2.222656 11.734375 2.484375 C 11.410156 2.890625 10.984375 3.03125 10.453125 2.90625 C 9.847656 2.769531 9.242188 2.617188 8.640625 2.453125 C 8.035156 2.296875 7.441406 2.132812 6.859375 1.96875 C 6.691406 1.925781 6.535156 1.878906 6.390625 1.828125 C 6.253906 1.773438 6.097656 1.726562 5.921875 1.6875 C 5.578125 1.644531 5.257812 1.523438 4.96875 1.328125 C 4.6875 1.140625 4.390625 0.941406 4.078125 0.734375 C 3.941406 0.609375 3.835938 0.445312 3.765625 0.25 C 3.691406 0.0625 3.632812 -0.117188 3.59375 -0.296875 C 3.539062 -0.847656 3.539062 -1.429688 3.59375 -2.046875 C 3.988281 -5.140625 4.550781 -8.175781 5.28125 -11.15625 C 6.300781 -15.125 7.257812 -19.066406 8.15625 -22.984375 C 8.550781 -24.441406 8.90625 -25.921875 9.21875 -27.421875 C 9.53125 -28.929688 9.851562 -30.398438 10.1875 -31.828125 L 12.25 -41.71875 C 12.28125 -42.039062 12.328125 -42.347656 12.390625 -42.640625 C 12.460938 -42.929688 12.535156 -43.222656 12.609375 -43.515625 C 12.710938 -44.015625 13.019531 -44.320312 13.53125 -44.4375 C 13.757812 -44.457031 13.984375 -44.46875 14.203125 -44.46875 C 14.429688 -44.46875 14.644531 -44.425781 14.84375 -44.34375 L 16.359375 -43.984375 C 16.609375 -43.929688 16.859375 -43.875 17.109375 -43.8125 C 17.367188 -43.757812 17.628906 -43.722656 17.890625 -43.703125 C 18.316406 -43.609375 18.722656 -43.535156 19.109375 -43.484375 C 19.503906 -43.441406 19.910156 -43.375 20.328125 -43.28125 C 20.796875 -43.175781 21.128906 -42.9375 21.328125 -42.5625 C 21.523438 -42.1875 21.570312 -41.765625 21.46875 -41.296875 C 20.945312 -38.847656 20.414062 -36.382812 19.875 -33.90625 C 19.332031 -31.4375 18.78125 -28.960938 18.21875 -26.484375 C 17.914062 -25.003906 17.597656 -23.523438 17.265625 -22.046875 C 16.929688 -20.566406 16.59375 -19.09375 16.25 -17.625 C 16.207031 -17.40625 16.195312 -17.25 16.21875 -17.15625 C 16.207031 -17.113281 16.242188 -17.082031 16.328125 -17.0625 Z M 16.328125 -17.0625 "/></g></g></g><g fill="#7b112a" fill-opacity="1"><g transform="translate(94.863245, 90.551674)"><g><path d="M 16.71875 -0.703125 C 15.988281 -0.597656 15.273438 -0.578125 14.578125 -0.640625 C 13.890625 -0.710938 13.1875 -0.804688 12.46875 -0.921875 C 10.96875 -1.179688 9.628906 -1.671875 8.453125 -2.390625 C 8.265625 -2.503906 8.050781 -2.613281 7.8125 -2.71875 C 7.582031 -2.820312 7.378906 -2.925781 7.203125 -3.03125 C 6.734375 -3.351562 6.289062 -3.664062 5.875 -3.96875 C 5.238281 -4.476562 4.648438 -5.039062 4.109375 -5.65625 C 3.578125 -6.28125 3.0625 -6.921875 2.5625 -7.578125 C 2.425781 -7.773438 2.300781 -7.988281 2.1875 -8.21875 C 2.070312 -8.457031 1.96875 -8.679688 1.875 -8.890625 C 1.707031 -9.265625 1.785156 -9.617188 2.109375 -9.953125 C 2.535156 -10.367188 2.96875 -10.820312 3.40625 -11.3125 C 3.851562 -11.8125 4.316406 -12.265625 4.796875 -12.671875 C 5.023438 -12.898438 5.25 -13.132812 5.46875 -13.375 C 5.6875 -13.613281 5.894531 -13.851562 6.09375 -14.09375 C 6.320312 -14.351562 6.648438 -14.550781 7.078125 -14.6875 C 7.296875 -14.78125 7.460938 -14.769531 7.578125 -14.65625 C 7.691406 -14.539062 7.800781 -14.445312 7.90625 -14.375 C 8.082031 -14.207031 8.242188 -14.035156 8.390625 -13.859375 C 8.535156 -13.679688 8.679688 -13.488281 8.828125 -13.28125 C 9.253906 -12.925781 9.664062 -12.554688 10.0625 -12.171875 C 10.46875 -11.796875 10.921875 -11.5 11.421875 -11.28125 C 11.597656 -11.21875 11.753906 -11.148438 11.890625 -11.078125 C 12.035156 -11.003906 12.195312 -10.9375 12.375 -10.875 C 12.8125 -10.726562 13.226562 -10.597656 13.625 -10.484375 C 14.03125 -10.367188 14.457031 -10.269531 14.90625 -10.1875 C 15.65625 -9.988281 16.40625 -10.035156 17.15625 -10.328125 C 17.613281 -10.535156 18.0625 -10.753906 18.5 -10.984375 C 18.9375 -11.222656 19.3125 -11.523438 19.625 -11.890625 C 20.5625 -12.929688 20.742188 -14.125 20.171875 -15.46875 C 19.796875 -16.25 19.191406 -16.863281 18.359375 -17.3125 C 18.035156 -17.5 17.691406 -17.695312 17.328125 -17.90625 C 16.960938 -18.113281 16.597656 -18.285156 16.234375 -18.421875 C 15.703125 -18.679688 15.171875 -18.9375 14.640625 -19.1875 C 14.117188 -19.4375 13.550781 -19.625 12.9375 -19.75 C 12.570312 -19.84375 12.210938 -19.972656 11.859375 -20.140625 C 11.503906 -20.316406 11.148438 -20.472656 10.796875 -20.609375 C 10.296875 -20.773438 9.863281 -20.957031 9.5 -21.15625 C 9.070312 -21.414062 8.65625 -21.660156 8.25 -21.890625 C 7.851562 -22.117188 7.441406 -22.359375 7.015625 -22.609375 C 6.691406 -22.847656 6.363281 -23.085938 6.03125 -23.328125 C 5.707031 -23.578125 5.363281 -23.820312 5 -24.0625 C 4.625 -24.382812 4.300781 -24.71875 4.03125 -25.0625 C 3.769531 -25.40625 3.515625 -25.78125 3.265625 -26.1875 C 3.003906 -26.632812 2.753906 -27.117188 2.515625 -27.640625 C 2.273438 -28.171875 2.085938 -28.691406 1.953125 -29.203125 C 1.078125 -32.160156 1.140625 -35.082031 2.140625 -37.96875 C 2.367188 -38.738281 2.671875 -39.441406 3.046875 -40.078125 C 3.421875 -40.722656 3.800781 -41.363281 4.1875 -42 C 4.65625 -42.6875 5.175781 -43.296875 5.75 -43.828125 C 6.320312 -44.367188 6.9375 -44.882812 7.59375 -45.375 C 7.800781 -45.519531 7.992188 -45.65625 8.171875 -45.78125 C 8.359375 -45.90625 8.535156 -46.019531 8.703125 -46.125 C 9.515625 -46.664062 10.390625 -47.039062 11.328125 -47.25 C 12.265625 -47.46875 13.203125 -47.640625 14.140625 -47.765625 C 15.304688 -47.867188 16.421875 -47.816406 17.484375 -47.609375 C 18.171875 -47.492188 18.851562 -47.328125 19.53125 -47.109375 C 20.207031 -46.898438 20.847656 -46.582031 21.453125 -46.15625 C 21.941406 -45.894531 22.425781 -45.597656 22.90625 -45.265625 C 23.394531 -44.941406 23.835938 -44.5625 24.234375 -44.125 C 24.523438 -43.851562 24.8125 -43.585938 25.09375 -43.328125 C 25.375 -43.066406 25.613281 -42.773438 25.8125 -42.453125 C 26.164062 -41.816406 26.15625 -41.207031 25.78125 -40.625 C 25.519531 -40.15625 25.242188 -39.710938 24.953125 -39.296875 C 24.660156 -38.890625 24.363281 -38.457031 24.0625 -38 C 23.90625 -37.757812 23.71875 -37.507812 23.5 -37.25 C 23.289062 -37 23.085938 -36.753906 22.890625 -36.515625 C 22.679688 -36.273438 22.441406 -36.113281 22.171875 -36.03125 C 21.910156 -35.945312 21.609375 -35.890625 21.265625 -35.859375 C 21.222656 -35.847656 21.164062 -35.859375 21.09375 -35.890625 C 21.03125 -35.929688 20.945312 -35.96875 20.84375 -36 C 20.625 -36.207031 20.382812 -36.382812 20.125 -36.53125 C 19.875 -36.6875 19.628906 -36.84375 19.390625 -37 C 18.878906 -37.46875 18.207031 -37.773438 17.375 -37.921875 C 16.664062 -38.078125 15.96875 -38.132812 15.28125 -38.09375 C 14.59375 -38.050781 13.898438 -37.957031 13.203125 -37.8125 C 12.648438 -37.757812 12.097656 -37.445312 11.546875 -36.875 C 10.960938 -36.394531 10.617188 -35.863281 10.515625 -35.28125 C 10.429688 -34.675781 10.441406 -34.140625 10.546875 -33.671875 C 10.679688 -33.023438 10.976562 -32.460938 11.4375 -31.984375 C 11.882812 -31.492188 12.492188 -31.078125 13.265625 -30.734375 C 13.765625 -30.472656 14.289062 -30.210938 14.84375 -29.953125 C 15.40625 -29.703125 15.941406 -29.445312 16.453125 -29.1875 C 16.597656 -29.101562 16.742188 -29.046875 16.890625 -29.015625 C 17.046875 -28.992188 17.191406 -28.945312 17.328125 -28.875 C 17.828125 -28.695312 18.320312 -28.519531 18.8125 -28.34375 C 19.300781 -28.175781 19.769531 -27.984375 20.21875 -27.765625 C 20.71875 -27.597656 21.179688 -27.421875 21.609375 -27.234375 C 22.035156 -27.054688 22.457031 -26.8125 22.875 -26.5 C 23.113281 -26.351562 23.34375 -26.203125 23.5625 -26.046875 C 23.789062 -25.898438 24 -25.742188 24.1875 -25.578125 C 24.363281 -25.460938 24.515625 -25.332031 24.640625 -25.1875 C 24.765625 -25.039062 24.921875 -24.9375 25.109375 -24.875 C 25.515625 -24.601562 25.90625 -24.3125 26.28125 -24 C 26.65625 -23.695312 26.972656 -23.316406 27.234375 -22.859375 C 27.335938 -22.648438 27.460938 -22.441406 27.609375 -22.234375 C 27.753906 -22.035156 27.882812 -21.832031 28 -21.625 C 28.15625 -21.25 28.328125 -20.863281 28.515625 -20.46875 C 28.703125 -20.070312 28.832031 -19.6875 28.90625 -19.3125 C 29.78125 -16.300781 29.71875 -13.34375 28.71875 -10.4375 C 28.488281 -9.71875 28.195312 -9.03125 27.84375 -8.375 C 27.488281 -7.71875 27.101562 -7.066406 26.6875 -6.421875 C 26.269531 -5.722656 25.757812 -5.117188 25.15625 -4.609375 C 24.550781 -4.109375 23.941406 -3.59375 23.328125 -3.0625 C 23.171875 -2.957031 23 -2.84375 22.8125 -2.71875 C 22.625 -2.59375 22.429688 -2.457031 22.234375 -2.3125 C 21.378906 -1.789062 20.488281 -1.414062 19.5625 -1.1875 C 18.644531 -0.957031 17.695312 -0.796875 16.71875 -0.703125 Z M 16.71875 -0.703125 "/></g></g></g></g></g><g fill="#000000" fill-opacity="1"><g transform="translate(504.933435, 158.631785)"><g><path d="M -5.90625 -36.234375 C -5.519531 -36.566406 -4.46875 -35.726562 -2.75 -33.71875 C -1.039062 -31.707031 -0.378906 -30.535156 -0.765625 -30.203125 L -7.015625 -24.875 L -3.6875 -20.96875 L 0.484375 -24.515625 C 0.867188 -24.847656 1.8125 -24.132812 3.3125 -22.375 C 4.820312 -20.613281 5.394531 -19.578125 5.03125 -19.265625 L 0.828125 -15.6875 L 7.84375 -7.453125 C 8.113281 -7.140625 7.867188 -6.566406 7.109375 -5.734375 C 6.347656 -4.910156 5.679688 -4.253906 5.109375 -3.765625 L 3.4375 -2.46875 C 2.207031 -1.644531 1.457031 -1.394531 1.1875 -1.71875 L -18.09375 -24.3125 C -18.40625 -24.675781 -18.53125 -24.976562 -18.46875 -25.21875 C -18.414062 -25.457031 -18.242188 -25.703125 -17.953125 -25.953125 Z M -5.90625 -36.234375 "/></g></g></g><g fill="#000000" fill-opacity="1"><g transform="translate(519.914129, 145.590238)"><g><path d="M 5.09375 -36.359375 C 5.5625 -36.554688 6.316406 -35.4375 7.359375 -33 C 8.398438 -30.570312 8.6875 -29.257812 8.21875 -29.0625 L 0.6875 -25.828125 L 2.703125 -21.125 L 7.734375 -23.28125 C 8.203125 -23.476562 8.894531 -22.507812 9.8125 -20.375 C 10.726562 -18.25 10.960938 -17.09375 10.515625 -16.90625 L 5.453125 -14.734375 L 9.703125 -4.796875 C 9.867188 -4.410156 9.460938 -3.929688 8.484375 -3.359375 C 7.503906 -2.796875 6.671875 -2.367188 5.984375 -2.078125 L 4.015625 -1.328125 C 2.597656 -0.910156 1.8125 -0.894531 1.65625 -1.28125 L -10.0625 -28.578125 C -10.25 -29.023438 -10.28125 -29.351562 -10.15625 -29.5625 C -10.039062 -29.78125 -9.804688 -29.960938 -9.453125 -30.109375 Z M 5.09375 -36.359375 "/></g></g></g><g fill="#000000" fill-opacity="1"><g transform="translate(537.994382, 137.522511)"><g><path d="M 14.890625 -20.5 C 15.453125 -20.550781 15.835938 -19.535156 16.046875 -17.453125 C 16.109375 -16.816406 16.113281 -16.066406 16.0625 -15.203125 C 16.007812 -14.347656 15.804688 -13.90625 15.453125 -13.875 L 9.78125 -13.3125 L 10.21875 -8.859375 L 18.4375 -9.671875 C 18.9375 -9.722656 19.34375 -9.097656 19.65625 -7.796875 C 19.800781 -7.234375 19.90625 -6.628906 19.96875 -5.984375 C 20.03125 -5.347656 20.019531 -4.515625 19.9375 -3.484375 C 19.863281 -2.460938 19.617188 -1.929688 19.203125 -1.890625 L 3.9375 -0.390625 C 2.800781 -0.273438 2.1875 -0.679688 2.09375 -1.609375 L -0.734375 -30.3125 C -0.804688 -31.082031 -0.5 -31.503906 0.1875 -31.578125 L 16.15625 -33.140625 C 16.789062 -33.203125 17.238281 -31.914062 17.5 -29.28125 C 17.757812 -26.65625 17.570312 -25.3125 16.9375 -25.25 L 8.6875 -24.4375 L 9.125 -19.921875 Z M 14.890625 -20.5 "/></g></g></g><g fill="#000000" fill-opacity="1"><g transform="translate(558.204368, 134.853367)"><g><path d="M 10.65625 1.984375 C 10.539062 2.453125 9.101562 2.34375 6.34375 1.65625 C 3.5625 0.96875 2.222656 0.40625 2.328125 -0.03125 L 9.328125 -28.4375 C 9.578125 -29.457031 10.238281 -29.832031 11.3125 -29.5625 L 19.625 -27.515625 C 27.257812 -25.640625 30.34375 -21.722656 28.875 -15.765625 C 28.425781 -13.960938 27.671875 -12.410156 26.609375 -11.109375 C 25.554688 -9.816406 24.285156 -8.894531 22.796875 -8.34375 L 26.03125 2.171875 C 25.632812 2.804688 24.679688 3.414062 23.171875 4 C 21.117188 4.820312 19.523438 5.09375 18.390625 4.8125 C 17.265625 4.53125 16.523438 3.914062 16.171875 2.96875 L 14.4375 -7.578125 L 13.09375 -7.90625 Z M 16.109375 -20.1875 L 14.5 -13.65625 L 14.703125 -13.609375 C 17.472656 -12.929688 19.140625 -13.738281 19.703125 -16.03125 C 19.960938 -17.070312 19.882812 -17.910156 19.46875 -18.546875 C 19.0625 -19.191406 18.242188 -19.664062 17.015625 -19.96875 Z M 16.109375 -20.1875 "/></g></g></g><g fill="#000000" fill-opacity="1"><g transform="translate(593.089533, 141.56018)"><g><path d="M 19.203125 -17.375 C 19.773438 -17.3125 19.945312 -16.210938 19.71875 -14.078125 C 19.644531 -13.429688 19.492188 -12.679688 19.265625 -11.828125 C 19.035156 -10.972656 18.738281 -10.566406 18.375 -10.609375 L 12.59375 -11.25 L 12.09375 -6.703125 L 20.46875 -5.78125 C 20.988281 -5.726562 21.269531 -5.023438 21.3125 -3.671875 C 21.332031 -3.078125 21.304688 -2.453125 21.234375 -1.796875 C 21.160156 -1.148438 20.972656 -0.320312 20.671875 0.6875 C 20.378906 1.707031 20.019531 2.195312 19.59375 2.15625 L 4 0.4375 C 2.851562 0.3125 2.332031 -0.21875 2.4375 -1.15625 L 5.65625 -30.46875 C 5.738281 -31.257812 6.128906 -31.617188 6.828125 -31.546875 L 23.140625 -29.75 C 23.785156 -29.675781 23.960938 -28.296875 23.671875 -25.609375 C 23.378906 -22.921875 22.910156 -21.613281 22.265625 -21.6875 L 13.84375 -22.609375 L 13.328125 -18.015625 Z M 19.203125 -17.375 "/></g></g></g><g fill="#000000" fill-opacity="1"><g transform="translate(622.007781, 144.423863)"><g><path d="M 27.15625 -3.96875 C 27.226562 -3.320312 25.832031 -2.84375 22.96875 -2.53125 C 20.113281 -2.21875 18.539062 -2.28125 18.25 -2.71875 L 9.09375 -16.109375 L 10.640625 -1.9375 C 10.691406 -1.382812 9.3125 -0.957031 6.5 -0.65625 C 3.6875 -0.351562 2.253906 -0.476562 2.203125 -1.03125 L -1.09375 -31.515625 C -1.144531 -31.972656 0.03125 -32.332031 2.4375 -32.59375 C 3.375 -32.695312 4.476562 -32.734375 5.75 -32.703125 C 7.03125 -32.671875 7.835938 -32.441406 8.171875 -32.015625 L 16.96875 -18.765625 L 15.421875 -33.078125 C 15.359375 -33.648438 16.738281 -34.085938 19.5625 -34.390625 C 22.394531 -34.703125 23.84375 -34.570312 23.90625 -34 Z M 27.15625 -3.96875 "/></g></g></g><g fill="#000000" fill-opacity="1"><g transform="translate(657.792486, 139.47807)"><g><path d="M 15.015625 -5.859375 C 15.210938 -5.273438 13.875 -4.5 11 -3.53125 C 8.132812 -2.5625 6.601562 -2.367188 6.40625 -2.953125 L -0.984375 -24.75 L -6.1875 -22.984375 C -6.675781 -22.816406 -7.25 -23.363281 -7.90625 -24.625 C -8.207031 -25.238281 -8.46875 -25.878906 -8.6875 -26.546875 C -8.914062 -27.210938 -9.097656 -27.875 -9.234375 -28.53125 C -9.472656 -29.925781 -9.347656 -30.707031 -8.859375 -30.875 L 10.03125 -37.28125 C 10.519531 -37.4375 11.09375 -36.890625 11.75 -35.640625 C 12.050781 -35.035156 12.3125 -34.398438 12.53125 -33.734375 C 12.757812 -33.066406 12.941406 -32.398438 13.078125 -31.734375 C 13.316406 -30.328125 13.191406 -29.546875 12.703125 -29.390625 L 7.625 -27.65625 Z M 15.015625 -5.859375 "/></g></g></g><g fill="#000000" fill-opacity="1"><g transform="translate(454.160167, 190.103192)"><g><path d="M 1.1875 -2.8125 L -9.953125 -27.3125 C -10.265625 -27.988281 -10.34375 -28.597656 -10.1875 -29.140625 C -10.03125 -29.691406 -9.679688 -30.09375 -9.140625 -30.34375 L -2.328125 -33.453125 C 2.003906 -35.421875 5.789062 -35.828125 9.03125 -34.671875 C 12.269531 -33.515625 14.953125 -30.597656 17.078125 -25.921875 C 21.640625 -15.898438 19.648438 -8.945312 11.109375 -5.0625 L 4.125 -1.875 C 2.738281 -1.25 1.757812 -1.5625 1.1875 -2.8125 Z M 0.421875 -25.3125 L 5.96875 -13.125 C 6.226562 -12.539062 6.429688 -12.191406 6.578125 -12.078125 C 6.722656 -11.972656 7 -12.015625 7.40625 -12.203125 C 8.90625 -12.878906 9.789062 -13.953125 10.0625 -15.421875 C 10.332031 -16.890625 9.875 -18.921875 8.6875 -21.515625 C 7.5 -24.117188 6.328125 -25.628906 5.171875 -26.046875 C 4.015625 -26.472656 2.5625 -26.285156 0.8125 -25.484375 Z M 0.421875 -25.3125 "/></g></g></g><g fill="#000000" fill-opacity="1"><g transform="translate(485.659264, 173.563754)"><g><path d="M -1.515625 -9.1875 L -12.46875 -20.8125 L -14.78125 -18.625 C -15.15625 -18.269531 -15.859375 -18.484375 -16.890625 -19.265625 C -17.390625 -19.671875 -17.863281 -20.113281 -18.3125 -20.59375 C -18.757812 -21.070312 -19.164062 -21.566406 -19.53125 -22.078125 C -20.269531 -23.160156 -20.453125 -23.878906 -20.078125 -24.234375 L -9.109375 -34.578125 C -8.742188 -34.921875 -8.050781 -34.6875 -7.03125 -33.875 C -6.519531 -33.5 -6.039062 -33.070312 -5.59375 -32.59375 C -5.144531 -32.113281 -4.742188 -31.601562 -4.390625 -31.0625 C -3.640625 -30.007812 -3.445312 -29.3125 -3.8125 -28.96875 L -6.015625 -26.890625 L 4.9375 -15.265625 L 7.234375 -17.421875 C 7.597656 -17.773438 8.300781 -17.554688 9.34375 -16.765625 C 9.851562 -16.390625 10.332031 -15.960938 10.78125 -15.484375 C 11.238281 -15.015625 11.644531 -14.503906 12 -13.953125 C 12.71875 -12.878906 12.894531 -12.164062 12.53125 -11.8125 L 1.53125 -1.453125 C 1.164062 -1.097656 0.476562 -1.320312 -0.53125 -2.125 C -1.0625 -2.507812 -1.550781 -2.9375 -2 -3.40625 C -2.457031 -3.882812 -2.851562 -4.394531 -3.1875 -4.9375 C -3.9375 -6 -4.128906 -6.707031 -3.765625 -7.0625 Z M -1.515625 -9.1875 "/></g></g></g></svg>